[Header]
FileType HTR
DataType HTRS
FileVersion 1
NumSegments 64
NumFrames 4
DataFrameRate 24
EulerRotationOrder ZYX
CalibrationUnits mm
RotationUnits Degrees
GlobalAxisofGravity Y
BoneLengthAxis Y
ScaleFactor 1.0
[SegmentNames&Hierarchy]
Hips	GLOBAL
Spine	Hips
Spine1	Spine
Spine2	Spine1
Neck	Spine2
Head	Neck
LeftEye	Head
RightEye	Head
LeftShoulder	Spine2
LeftArm	LeftShoulder
LeftForeArm	LeftArm
LeftHand	LeftForeArm
LeftHandThumb1	LeftHand
LeftHandThumb2	LeftHandThumb1
LeftHandThumb3	LeftHandThumb2
LeftHandThumb4	LeftHandThumb3
LeftHandIndex1	LeftHand
LeftHandIndex2	LeftHandIndex1
LeftHandIndex3	LeftHandIndex2
LeftHandIndex4	LeftHandIndex3
LeftHandMiddle1	LeftHand
LeftHandMiddle2	LeftHandMiddle1
LeftHandMiddle3	LeftHandMiddle2
LeftHandMiddle4	LeftHandMiddle3
LeftHandRing1	LeftHand
LeftHandRing2	LeftHandRing1
LeftHandRing3	LeftHandRing2
LeftHandRing4	LeftHandRing3
LeftHandPinky1	LeftHand
LeftHandPinky2	LeftHandPinky1
LeftHandPinky3	LeftHandPinky2
LeftHandPinky4	LeftHandPinky3
RightShoulder	Spine2
RightArm	RightShoulder
RightForeArm	RightArm
RightHand	RightForeArm
RightHandPinky1	RightHand
RightHandPinky2	RightHandPinky1
RightHandPinky3	RightHandPinky2
RightHandPinky4	RightHandPinky3
RightHandRing1	RightHand
RightHandRing2	RightHandRing1
RightHandRing3	RightHandRing2
RightHandRing4	RightHandRing3
RightHandMiddle1	RightHand
RightHandMiddle2	RightHandMiddle1
RightHandMiddle3	RightHandMiddle2
RightHandMiddle4	RightHandMiddle3
RightHandIndex1	RightHand
RightHandIndex2	RightHandIndex1
RightHandIndex3	RightHandIndex2
RightHandIndex4	RightHandIndex3
RightHandThumb1	RightHand
RightHandThumb2	RightHandThumb1
RightHandThumb3	RightHandThumb2
RightHandThumb4	RightHandThumb3
LeftUpLeg	Hips
LeftLeg	LeftUpLeg
LeftFoot	LeftLeg
LeftToeBase	LeftFoot
RightUpLeg	Hips
RightLeg	RightUpLeg
RightFoot	RightLeg
RightToeBase	RightFoot
[BasePosition]
Hips	0	0	0	0	0	0	1
Spine	0	0	0	0	0	0	1
Spine1	0	0	0	0	0	0	1
Spine2	0	0	0	0	0	0	1
Neck	0	0	0	0	0	0	1
Head	0	0	0	0	0	0	1
LeftEye	0	0	0	0	0	0	1
RightEye	0	0	0	0	0	0	1
LeftShoulder	0	0	0	0	0	0	1
LeftArm	0	0	0	0	0	0	1
LeftForeArm	0	0	0	0	0	0	1
LeftHand	0	0	0	0	0	0	1
LeftHandThumb1	0	0	0	0	0	0	1
LeftHandThumb2	0	0	0	0	0	0	1
LeftHandThumb3	0	0	0	0	0	0	1
LeftHandThumb4	0	0	0	0	0	0	1
LeftHandIndex1	0	0	0	0	0	0	1
LeftHandIndex2	0	0	0	0	0	0	1
LeftHandIndex3	0	0	0	0	0	0	1
LeftHandIndex4	0	0	0	0	0	0	1
LeftHandMiddle1	0	0	0	0	0	0	1
LeftHandMiddle2	0	0	0	0	0	0	1
LeftHandMiddle3	0	0	0	0	0	0	1
LeftHandMiddle4	0	0	0	0	0	0	1
LeftHandRing1	0	0	0	0	0	0	1
LeftHandRing2	0	0	0	0	0	0	1
LeftHandRing3	0	0	0	0	0	0	1
LeftHandRing4	0	0	0	0	0	0	1
LeftHandPinky1	0	0	0	0	0	0	1
LeftHandPinky2	0	0	0	0	0	0	1
LeftHandPinky3	0	0	0	0	0	0	1
LeftHandPinky4	0	0	0	0	0	0	1
RightShoulder	0	0	0	0	0	0	1
RightArm	0	0	0	0	0	0	1
RightForeArm	0	0	0	0	0	0	1
RightHand	0	0	0	0	0	0	1
RightHandPinky1	0	0	0	0	0	0	1
RightHandPinky2	0	0	0	0	0	0	1
RightHandPinky3	0	0	0	0	0	0	1
RightHandPinky4	0	0	0	0	0	0	1
RightHandRing1	0	0	0	0	0	0	1
RightHandRing2	0	0	0	0	0	0	1
RightHandRing3	0	0	0	0	0	0	1
RightHandRing4	0	0	0	0	0	0	1
RightHandMiddle1	0	0	0	0	0	0	1
RightHandMiddle2	0	0	0	0	0	0	1
RightHandMiddle3	0	0	0	0	0	0	1
RightHandMiddle4	0	0	0	0	0	0	1
RightHandIndex1	0	0	0	0	0	0	1
RightHandIndex2	0	0	0	0	0	0	1
RightHandIndex3	0	0	0	0	0	0	1
RightHandIndex4	0	0	0	0	0	0	1
RightHandThumb1	0	0	0	0	0	0	1
RightHandThumb2	0	0	0	0	0	0	1
RightHandThumb3	0	0	0	0	0	0	1
RightHandThumb4	0	0	0	0	0	0	1
LeftUpLeg	0	0	0	0	0	0	1
LeftLeg	0	0	0	0	0	0	1
LeftFoot	0	0	0	0	0	0	1
LeftToeBase	0	0	0	0	0	0	1
RightUpLeg	0	0	0	0	0	0	1
RightLeg	0	0	0	0	0	0	1
RightFoot	0	0	0	0	0	0	1
RightToeBase	0	0	0	0	0	0	1
[Hips]
1	-1.72073245	971.2576294	263.9894409	-60.6450882	77.679039	-53.7094841	1.0
2	-3.262078285	969.4335938	275.0527649	-59.75515747	77.53754425	-52.67689896	1.0
3	-3.536810398	967.2357178	276.976593	-52.55065155	75.91970825	-45.45108414	1.0
4	-1.854286194	965.7238159	270.6235352	-43.74794006	72.38667297	-36.68560028	1.0
[Spine]
1	0	101.8159943	1.315000057	21.53537941	7.556722641	8.903427124	1.0
2	0	101.8159943	1.315000057	21.76603127	7.436197281	10.70339394	1.0
3	0	101.8159943	1.315000057	21.88179588	7.12555027	11.45926571	1.0
4	0	101.8159943	1.315000057	21.58963013	6.098912716	10.66490459	1.0
[Spine1]
1	0	100.8349991	-10.00800037	-1.685021043	0.9192035794	3.198087692	1.0
2	0	100.8349991	-10.00800037	-1.534358263	0.8504330516	3.388950348	1.0
3	0	100.8349991	-10.00800037	-1.233863235	0.8280605674	3.390100241	1.0
4	0	100.8349991	-10.00800037	-0.8344824314	0.7424083948	3.282458305	1.0
[Spine2]
1	0	91	-13.73399925	-1.711084843	1.125899434	3.661177874	1.0
2	0	91	-13.73399925	-1.573499203	1.102676153	3.972073078	1.0
3	0	91	-13.73399925	-1.266582012	1.073122501	3.97888732	1.0
4	0	91	-13.73399925	-0.8566935062	0.9434151649	3.78074646	1.0
[Neck]
1	0	166.7169952	-25.16200066	1.65609622	-11.81875134	-6.570433617	1.0
2	0	166.7169952	-25.16200066	2.639656305	-11.80758953	-6.706778526	1.0
3	0	166.7169952	-25.16200066	3.329271317	-11.63959026	-7.133542061	1.0
4	0	166.7169952	-25.16200066	3.221684456	-11.19639778	-7.77352047	1.0
[Head]
1	0	96.17900085	16.84999847	-14.56725311	-67.25650787	17.93375969	1.0
2	0	96.17900085	16.84999847	-11.69460297	-68.52288818	16.58941269	1.0
3	0	96.17900085	16.84999847	-8.511490822	-68.84754944	13.92160416	1.0
4	0	96.17900085	16.84999847	-6.371564388	-67.56907654	11.30804062	1.0
[LeftEye]
1	30.6760006	64.09500122	92.83599854	0	0	0	1.0
2	30.6760006	64.09500122	92.83599854	0	0	0	1.0
3	30.6760006	64.09500122	92.83599854	0	0	0	1.0
4	30.6760006	64.09500122	92.83599854	0	0	0	1.0
[RightEye]
1	-30.6760006	64.09500122	92.83499908	0	0	0	1.0
2	-30.6760006	64.09500122	92.83499908	0	0	0	1.0
3	-30.6760006	64.09500122	92.83499908	0	0	0	1.0
4	-30.6760006	64.09500122	92.83499908	0	0	0	1.0
[LeftShoulder]
1	45.70400238	109.4599991	-26.28000069	-0.05445103347	3.732403517	-1.528689861	1.0
2	45.70400238	109.4599991	-26.28000069	0.03389850631	2.780039072	0.6766891479	1.0
3	45.70400238	109.4599991	-26.28000069	0.105566211	2.066274881	1.654228806	1.0
4	45.70400238	109.4599991	-26.28000069	0.08684040606	2.251926422	2.533248425	1.0
[LeftArm]
1	105.923996	-5.24600029	-22.32099915	-72.06118774	3.64881444	-10.12526703	1.0
2	105.923996	-5.24600029	-22.32099915	-58.98697662	6.432594299	-2.702171564	1.0
3	105.923996	-5.24600029	-22.32099915	-50.68576813	8.547371864	3.367106676	1.0
4	105.923996	-5.24600029	-22.32099915	-43.01543045	7.457892895	6.528509617	1.0
[LeftForeArm]
1	278.414978	-0.0009999999311	0	-0.0001849507826	-84.78959656	-5.857562792e-05	1.0
2	278.414978	-0.0009999999311	0	-1.485710254e-05	-75.74046326	-0.0002077215322	1.0
3	278.414978	-0.0009999999311	0	7.552144325e-06	-68.14182281	-0.000235699903	1.0
4	278.414978	-0.0009999999311	0	7.212601304e-06	-57.50206375	-0.0002229643724	1.0
[LeftHand]
1	283.2879944	0	0	-35.92687988	-25.81820869	-0.378534168	1.0
2	283.2879944	0	0	-24.64487457	-25.6332283	-3.756426096	1.0
3	283.2879944	0	0	-24.30267143	-27.01966858	-0.5450866222	1.0
4	283.2879944	0	0	-36.53055573	-26.15490723	9.798778534	1.0
[LeftHandThumb1]
1	24.6609993	-15.75	26.8239994	-9.375205994	-11.42749023	1.892966747	1.0
2	24.6609993	-15.75	26.8239994	-8.865423203	-14.42275906	-1.3777982	1.0
3	24.6609993	-15.75	26.8239994	-7.819078445	-16.26830292	-4.418980122	1.0
4	24.6609993	-15.75	26.8239994	-6.109132767	-15.31883144	-5.906497955	1.0
[LeftHandThumb2]
1	32.29800034	-18.64699936	18.64699936	1.229339242	-0.1970249563	-1.045792103	1.0
2	32.29800034	-18.64699936	18.64699936	1.222339034	-0.193329826	-1.049229622	1.0
3	32.29800034	-18.64699936	18.64699936	1.211856365	-0.187636748	-1.05458951	1.0
4	32.29800034	-18.64699936	18.64699936	1.210909605	-0.1869343221	-1.055035114	1.0
[LeftHandThumb3]
1	26.52600098	-15.31499958	15.31499958	-0.1787131876	2.578311443	3.141131878	1.0
2	26.52600098	-15.31499958	15.31499958	-1.121222258	1.049022794	3.353464603	1.0
3	26.52600098	-15.31499958	15.31499958	-1.788277864	-0.04812951759	3.516633987	1.0
4	26.52600098	-15.31499958	15.31499958	-1.841697693	-0.1439063549	3.474195242	1.0
[LeftHandThumb4]
1	19.54599953	-11.28499985	11.28499985	0	0	0	1.0
2	19.54599953	-11.28499985	11.28499985	0	0	0	1.0
3	19.54599953	-11.28499985	11.28499985	0	0	0	1.0
4	19.54599953	-11.28499985	11.28499985	0	0	0	1.0
[LeftHandIndex1]
1	91.09299469	-5.170999527	22.60099792	-1.886701226	-10.57992268	-45.61842346	1.0
2	91.09299469	-5.170999527	22.60099792	-2.033438444	-10.82185459	-47.34626389	1.0
3	91.09299469	-5.170999527	22.60099792	-2.043438196	-10.79078865	-47.45082855	1.0
4	91.09299469	-5.170999527	22.60099792	-1.746655107	-10.16416931	-43.78187561	1.0
[LeftHandIndex2]
1	36.76399994	0	0	-0.184766382	1.58445549	-13.30184937	1.0
2	36.76399994	0	0	-0.2117191553	1.694354177	-14.24389744	1.0
3	36.76399994	0	0	-0.203864187	1.663127065	-13.97577858	1.0
4	36.76399994	0	0	-0.1424828321	1.366244078	-11.45238113	1.0
[LeftHandIndex3]
1	28.83100128	0	0	-0.03913895041	0.7332366705	-6.110908031	1.0
2	28.83100128	0	0	-0.03863782063	0.7285215259	-6.071475029	1.0
3	28.83100128	0	0	-0.03862765804	0.7284492254	-6.070824146	1.0
4	28.83100128	0	0	-0.0397618264	0.738973856	-6.158925056	1.0
[LeftHandIndex4]
1	23.92700005	0	0	0	0	0	1.0
2	23.92700005	0	0	0	0	0	1.0
3	23.92700005	0	0	0	0	0	1.0
4	23.92700005	0	0	0	0	0	1.0
[LeftHandMiddle1]
1	95.33399963	0	0	-1.450135827	-1.158213377	-38.19465256	1.0
2	95.33399963	0	0	-1.499495506	-1.164868593	-38.86050797	1.0
3	95.33399963	0	0	-1.486630559	-1.180029511	-38.6899147	1.0
4	95.33399963	0	0	-1.335547447	-1.217755437	-36.58650208	1.0
[LeftHandMiddle2]
1	36.98199844	0	0	-0.6999518275	3.023585796	-26.06287003	1.0
2	36.98199844	0	0	-0.7076043487	3.039162636	-26.2075634	1.0
3	36.98199844	0	0	-0.6690749526	2.959711552	-25.47123718	1.0
4	36.98199844	0	0	-0.5520082712	2.689699411	-23.01823425	1.0
[LeftHandMiddle3]
1	29.50900078	0	0	-0.06908680499	0.9730796814	-8.121958733	1.0
2	29.50900078	0	0	-0.06900428981	0.9725125432	-8.11715889	1.0
3	29.50900078	0	0	-0.0679910779	0.9653760791	-8.057184219	1.0
4	29.50900078	0	0	-0.06546553969	0.9472090602	-7.904611588	1.0
[LeftHandMiddle4]
1	28.3390007	0	0	0	0	0	1.0
2	28.3390007	0	0	0	0	0	1.0
3	28.3390007	0	0	0	0	0	1.0
4	28.3390007	0	0	0	0	0	1.0
[LeftHandRing1]
1	91.04499817	-0.4390000105	-18.65100098	-1.647938013	2.559438229	-40.53917694	1.0
2	91.04499817	-0.4390000105	-18.65100098	-1.627411246	2.522042036	-40.27566147	1.0
3	91.04499817	-0.4390000105	-18.65100098	-1.589202046	2.467089653	-39.78066635	1.0
4	91.04499817	-0.4390000105	-18.65100098	-1.512752891	2.389494658	-38.76832199	1.0
[LeftHandRing2]
1	31.54000092	0	0	-0.8203183413	3.257838964	-28.25953674	1.0
2	31.54000092	0	0	-0.7521790862	3.127960205	-27.03617096	1.0
3	31.54000092	0	0	-0.6765245199	2.975281	-25.61517143	1.0
4	31.54000092	0	0	-0.5929678679	2.79143858	-23.93167877	1.0
[LeftHandRing3]
1	29.37700081	0	0	-0.06817289442	0.9666703343	-8.068068504	1.0
2	29.37700081	0	0	-0.06757257134	0.9624084234	-8.032254219	1.0
3	29.37700081	0	0	-0.06694048643	0.9579195976	-7.994562149	1.0
4	29.37700081	0	0	-0.06629119813	0.9533013105	-7.955742836	1.0
[LeftHandRing4]
1	26.47500038	0	0	0	0	0	1.0
2	26.47500038	0	0	0	0	0	1.0
3	26.47500038	0	0	0	0	0	1.0
4	26.47500038	0	0	0	0	0	1.0
[LeftHandPinky1]
1	80.77799988	-4.887000084	-38.06099701	-2.722733974	4.949063301	-52.853302	1.0
2	80.77799988	-4.887000084	-38.06099701	-2.604142904	4.985617638	-51.5990715	1.0
3	80.77799988	-4.887000084	-38.06099701	-2.517323256	4.874673367	-50.66798019	1.0
4	80.77799988	-4.887000084	-38.06099701	-2.503407478	4.497896194	-50.52083969	1.0
[LeftHandPinky2]
1	36	0	0	0.8995583653	-1.86706686	-17.44864464	1.0
2	36	0	0	0.8149831891	-2.190413237	-15.05988026	1.0
3	36	0	0	0.7306393385	-2.468119383	-12.9848671	1.0
4	36	0	0	0.6753441691	-2.633113146	-11.74047852	1.0
[LeftHandPinky3]
1	21.14200211	0	0	-0.0335059762	0.6785443425	-5.65349865	1.0
2	21.14200211	0	0	-0.03414649516	0.6850042343	-5.707493782	1.0
3	21.14200211	0	0	-0.03474799916	0.6909808517	-5.757487297	1.0
4	21.14200211	0	0	-0.03512600809	0.6946830153	-5.788434505	1.0
[LeftHandPinky4]
1	19.75699997	0	0	0	0	0	1.0
2	19.75699997	0	0	0	0	0	1.0
3	19.75699997	0	0	0	0	0	1.0
4	19.75699997	0	0	0	0	0	1.0
[RightShoulder]
1	-45.70000076	109.4620056	-26.28000069	1.453759432	0.6445177794	29.43861008	1.0
2	-45.70000076	109.4620056	-26.28000069	1.391288042	0.671072185	27.34082794	1.0
3	-45.70000076	109.4620056	-26.28000069	1.175952435	0.2834784389	24.83077621	1.0
4	-45.70000076	109.4620056	-26.28000069	0.8970577717	-0.2601979971	20.75658798	1.0
[RightArm]
1	-105.9280014	-5.248000145	-22.32099915	-28.39892769	23.68202019	30.28518677	1.0
2	-105.9280014	-5.248000145	-22.32099915	-22.2017231	23.16149521	22.4461937	1.0
3	-105.9280014	-5.248000145	-22.32099915	-24.81438637	22.59229279	16.00275993	1.0
4	-105.9280014	-5.248000145	-22.32099915	-34.34490967	23.72322464	10.92618179	1.0
[RightForeArm]
1	-278.414978	0	0	-1.491638523e-05	22.35844612	2.079305887e-05	1.0
2	-278.414978	0	0	8.605190487e-06	20.70127678	4.905352853e-07	1.0
3	-278.414978	0	0	-1.212811912e-05	20.77603912	8.011913451e-06	1.0
4	-278.414978	0	0	-2.660178779e-06	22.09529686	2.315414122e-06	1.0
[RightHand]
1	-283.2879944	0	0.0009999999311	-89.57320404	-7.53342247	-30.62276268	1.0
2	-283.2879944	0	0.0009999999311	-94.02619171	-19.38763237	-25.48144531	1.0
3	-283.2879944	0	0.0009999999311	-92.73485565	-23.44472313	-25.50894737	1.0
4	-283.2879944	0	0.0009999999311	-85.291008	-18.05394745	-31.23080444	1.0
[RightHandPinky1]
1	-80.76699829	-4.885000229	-38.06000137	-5.3323493	-15.0235815	76.83585358	1.0
2	-80.76699829	-4.885000229	-38.06000137	-5.110377312	-15.09128284	74.9628067	1.0
3	-80.76699829	-4.885000229	-38.06000137	-4.891570091	-14.39209843	73.06729889	1.0
4	-80.76699829	-4.885000229	-38.06000137	-4.747565746	-12.52112579	71.75894928	1.0
[RightHandPinky2]
1	-36	0	0.0009999999311	-1.88167882	-4.750370979	43.21257019	1.0
2	-36	0	0.0009999999311	-1.857919812	-4.72502327	42.92487335	1.0
3	-36	0	0.0009999999311	-1.902811885	-4.772676468	43.46691895	1.0
4	-36	0	0.0009999999311	-2.077171087	-4.944839954	45.4968071	1.0
[RightHandPinky3]
1	-21.14200211	0	0	-0.03360449523	0.6827996969	-5.63401413	1.0
2	-21.14200211	0	0	-0.03037707508	0.6493849158	-5.357402802	1.0
3	-21.14200211	0	0	-0.02922381274	0.6371049881	-5.255718708	1.0
4	-21.14200211	0	0	-0.03237443417	0.6696405411	-5.525015831	1.0
[RightHandPinky4]
1	-19.75699997	0	0	0	0	0	1.0
2	-19.75699997	0	0	0	0	0	1.0
3	-19.75699997	0	0	0	0	0	1.0
4	-19.75699997	0	0	0	0	0	1.0
[RightHandRing1]
1	-91.03599548	-0.4390000105	-18.65100098	-2.92094183	-8.140573502	54.66260529	1.0
2	-91.03599548	-0.4390000105	-18.65100098	-2.692222118	-8.480165482	52.32481003	1.0
3	-91.03599548	-0.4390000105	-18.65100098	-2.434244633	-8.268295288	49.58273315	1.0
4	-91.03599548	-0.4390000105	-18.65100098	-2.201836586	-7.132057667	46.94983673	1.0
[RightHandRing2]
1	-31.54000092	0	0	-0.4167901874	-2.370663881	19.93965149	1.0
2	-31.54000092	0	0	-0.2698700428	-1.918201566	16.0149231	1.0
3	-31.54000092	0	0	-0.2029486746	-1.667638063	13.87631893	1.0
4	-31.54000092	0	0	-0.2257849276	-1.754671097	14.61818218	1.0
[RightHandRing3]
1	-29.37700081	0	0	2.082844734	-0.2407818288	1.983843684	1.0
2	-29.37700081	0	0	1.276833653	-0.04238344729	0.3516728282	1.0
3	-29.37700081	0	0	0.7720726132	0.08603541553	-0.7086805105	1.0
4	-29.37700081	0	0	0.4503679872	0.1337221563	-1.101869822	1.0
[RightHandRing4]
1	-26.47500038	0	0	0	0	0	1.0
2	-26.47500038	0	0	0	0	0	1.0
3	-26.47500038	0	0	0	0	0	1.0
4	-26.47500038	0	0	0	0	0	1.0
[RightHandMiddle1]
1	-95.32500458	0	0	-1.110676169	-0.9343152046	32.95325851	1.0
2	-95.32500458	0	0	-0.8779251575	-1.556301951	29.14121246	1.0
3	-95.32500458	0	0	-0.5382397771	-1.496744633	22.72371864	1.0
4	-95.32500458	0	0	-0.2830629945	-0.4311606586	15.42707729	1.0
[RightHandMiddle2]
1	-36.98199844	0	0	-0.4190128446	-2.376798868	19.99357224	1.0
2	-36.98199844	0	0	-0.1378808767	-1.377912402	11.42844582	1.0
3	-36.98199844	0	0	-0.03968797252	-0.7420226932	6.124435425	1.0
4	-36.98199844	0	0	-0.03296551108	-0.7023400068	5.792714596	1.0
[RightHandMiddle3]
1	-29.50900078	0	0	1.763150811	-0.6726956964	5.533510208	1.0
2	-29.50900078	0	0	0.7671735883	-0.1955465376	1.602559209	1.0
3	-29.50900078	0	0	0.1805371642	0.1172336861	-0.9825140238	1.0
4	-29.50900078	0	0	0.1869282126	0.2365945727	-1.966779709	1.0
[RightHandMiddle4]
1	-28.3390007	0	0.0009999999311	0	0	0	1.0
2	-28.3390007	0	0.0009999999311	0	0	0	1.0
3	-28.3390007	0	0.0009999999311	0	0	0	1.0
4	-28.3390007	0	0.0009999999311	0	0	0	1.0
[RightHandIndex1]
1	-91.08300018	-5.167999744	22.60099792	-0.1345442981	7.060440063	14.22272396	1.0
2	-91.08300018	-5.167999744	22.60099792	-0.02490053885	6.019192219	8.213199615	1.0
3	-91.08300018	-5.167999744	22.60099792	0.03056938574	5.760439396	-1.4085958	1.0
4	-91.08300018	-5.167999744	22.60099792	-0.2538998425	6.727735519	-13.22646141	1.0
[RightHandIndex2]
1	-36.76399994	0	0	-0.561661005	-2.736847401	23.19008446	1.0
2	-36.76399994	0	0	-0.09856338799	-1.16670239	9.657766342	1.0
3	-36.76399994	0	0	-0.005158224609	-0.2680525184	2.208587408	1.0
4	-36.76399994	0	0	-0.01329520438	-0.4215900302	3.474524975	1.0
[RightHandIndex3]
1	-28.83100128	0	0	-0.03396111354	-0.6865196228	5.664690495	1.0
2	-28.83100128	0	0	-0.002071776893	-0.17009224	1.401331782	1.0
3	-28.83100128	0	0	-0.002318510087	0.1793022156	-1.477105618	1.0
4	-28.83100128	0	0	-0.009622305632	0.3627466559	-2.989798784	1.0
[RightHandIndex4]
1	-23.92700005	0	0	0	0	0	1.0
2	-23.92700005	0	0	0	0	0	1.0
3	-23.92700005	0	0	0	0	0	1.0
4	-23.92700005	0	0	0	0	0	1.0
[RightHandThumb1]
1	-24.64799881	-15.72700024	26.82600021	3.180154324	-9.709976196	-11.80180264	1.0
2	-24.64799881	-15.72700024	26.82600021	-2.661633015	-9.929462433	-14.02113628	1.0
3	-24.64799881	-15.72700024	26.82600021	-7.608082294	-10.00913429	-16.38342285	1.0
4	-24.64799881	-15.72700024	26.82600021	-9.387675285	-9.740475655	-20.3298378	1.0
[RightHandThumb2]
1	-32.29800034	-18.64699936	18.64699936	2.057866096	0.3467246294	1.644228816	1.0
2	-32.29800034	-18.64699936	18.64699936	2.058841705	0.3429987431	1.658132672	1.0
3	-32.29800034	-18.64699936	18.64699936	2.059525013	0.3361564279	1.682474256	1.0
4	-32.29800034	-18.64699936	18.64699936	2.060033321	0.3358956575	1.684012294	1.0
[RightHandThumb3]
1	-26.52600098	-15.31399918	15.31399918	-3.710656881	3.921910286	-2.941357374	1.0
2	-26.52600098	-15.31399918	15.31399918	-3.520820618	3.566952705	-2.991002321	1.0
3	-26.52600098	-15.31399918	15.31399918	-3.473065853	3.402721882	-3.093113661	1.0
4	-26.52600098	-15.31399918	15.31399918	-3.777921915	3.801273108	-3.255238056	1.0
[RightHandThumb4]
1	-19.54599953	-11.28499985	11.28499985	0	0	0	1.0
2	-19.54599953	-11.28499985	11.28499985	0	0	0	1.0
3	-19.54599953	-11.28499985	11.28499985	0	0	0	1.0
4	-19.54599953	-11.28499985	11.28499985	0	0	0	1.0
[LeftUpLeg]
1	82.07800293	-67.51699829	-15.99599934	-22.92357635	20.6234417	18.94446945	1.0
2	82.07800293	-67.51699829	-15.99599934	-23.13196945	19.66750336	18.55352211	1.0
3	82.07800293	-67.51699829	-15.99599934	-23.07828903	20.559618	18.40303421	1.0
4	82.07800293	-67.51699829	-15.99599934	-22.42758179	20.13148499	18.56681442	1.0
[LeftLeg]
1	0	-443.7049866	2.845999956	45.10876465	4.308335781	-5.095675945	1.0
2	0	-443.7049866	2.845999956	44.88363266	2.091745615	-4.429763794	1.0
3	0	-443.7049866	2.845999956	45.19669724	0.4912808239	-3.207551956	1.0
4	0	-443.7049866	2.845999956	46.29257965	0.5854834318	-1.555716753	1.0
[LeftFoot]
1	0	-444.2789917	-29.8219986	-15.31816292	-4.73359251	-0.9605678916	1.0
2	0	-444.2789917	-29.8219986	-13.90959167	-3.328933954	-0.7433655262	1.0
3	0	-444.2789917	-29.8219986	-11.57177067	-2.01139617	-0.3791346848	1.0
4	0	-444.2789917	-29.8219986	-12.5099659	1.231957436	-1.979217052	1.0
[LeftToeBase]
1	0	-87.28699493	107.1060028	-3.550356865	-6.316759936e-06	-4.321080269e-06	1.0
2	0	-87.28699493	107.1060028	-3.655296326	-1.535873889e-05	-4.69051156e-06	1.0
3	0	-87.28699493	107.1060028	-4.127620697	-1.68141014e-06	2.307013176e-07	1.0
4	0	-87.28699493	107.1060028	-4.178458214	-6.803463293e-06	6.953362117e-07	1.0
[RightUpLeg]
1	-82.07800293	-67.51699829	-15.99599934	-12.03243256	-7.911173344	-0.1331752241	1.0
2	-82.07800293	-67.51699829	-15.99599934	-12.3545208	-7.294089317	0.7891901731	1.0
3	-82.07800293	-67.51699829	-15.99599934	-13.05108166	-5.856916904	1.388414145	1.0
4	-82.07800293	-67.51699829	-15.99599934	-13.77659225	-4.373398304	1.587249041	1.0
[RightLeg]
1	0	-443.7049866	2.861999989	39.19360733	-8.965209007	-4.445292473	1.0
2	0	-443.7049866	2.861999989	40.05257416	-8.18885994	-5.324365616	1.0
3	0	-443.7049866	2.861999989	40.98556137	-7.940803051	-5.495880604	1.0
4	0	-443.7049866	2.861999989	41.13391495	-7.592520714	-5.828538418	1.0
[RightFoot]
1	0	-444.2770081	-29.83799934	-22.36166954	-11.83269405	20.79949951	1.0
2	0	-444.2770081	-29.83799934	-21.72460365	-10.69196224	22.92131805	1.0
3	0	-444.2770081	-29.83799934	-21.16674232	-9.12456131	24.04649544	1.0
4	0	-444.2770081	-29.83799934	-18.89551544	-6.287367821	24.47037125	1.0
[RightToeBase]
1	0	-87.28699493	107.1060028	11.1604929	-1.263380273e-05	-2.053193839e-06	1.0
2	0	-87.28699493	107.1060028	8.87646389	0.428634882	-2.367803574	1.0
3	0	-87.28699493	107.1060028	7.486660004	0.760322988	-4.304157734	1.0
4	0	-87.28699493	107.1060028	5.295284271	0.6867715716	-5.125154495	1.0
[EndOfFile]
